<svg xmlns="http://www.w3.org/2000/svg" width="746" height="311" viewBox="0 0 746 311">
  <path d="M 0.00 105.38 L 2.38 89.00 L 3.62 88.00 L 3.38 85.00 L 4.62 84.00 L 6.38 77.00 L 7.62 76.00 L 7.38 74.00 L 9.62 71.25 L 9.38 70.00 L 10.62 69.00 L 14.38 60.00 L 15.62 59.25 L 15.38 58.00 L 17.62 56.00 L 17.38 55.00 L 19.38 53.25 L 21.38 49.00 L 37.00 31.38 L 39.25 30.38 L 45.00 24.38 L 46.25 24.38 L 49.00 21.38 L 50.25 21.38 L 58.00 15.38 L 72.25 8.38 L 83.25 4.38 L 85.50 4.38 L 86.00 3.38 L 90.00 3.38 L 91.00 2.38 L 100.00 1.38 L 101.00 0.38 L 108.38 0.00 L 0.00 105.38 Z M 126.12 0.00 L 136.75 0.38 L 137.75 1.38 L 150.75 3.38 L 151.50 4.38 L 153.75 4.38 L 154.75 5.38 L 162.75 7.38 L 165.75 9.38 L 167.75 9.38 L 168.25 10.38 L 179.75 15.38 L 186.50 20.38 L 187.75 20.38 L 197.50 28.38 L 210.38 41.00 L 210.38 42.25 L 214.38 46.00 L 219.38 53.00 L 219.38 54.25 L 221.38 56.00 L 222.38 59.25 L 224.38 61.00 L 224.12 62.00 L 226.38 65.00 L 226.12 66.25 L 228.38 69.00 L 228.12 70.25 L 229.38 71.00 L 229.38 73.25 L 231.38 76.00 L 233.38 84.25 L 234.38 85.00 L 234.12 87.00 L 235.38 88.00 L 236.12 96.00 L 237.38 97.00 L 237.12 102.25 L 238.38 103.00 L 238.38 112.75 L 239.38 114.00 L 239.38 119.75 L 238.38 120.50 L 238.38 131.75 L 237.38 132.75 L 236.38 143.75 L 235.38 144.50 L 235.38 147.75 L 234.12 148.75 L 234.38 151.75 L 233.12 152.75 L 233.38 154.75 L 232.12 155.75 L 232.38 157.75 L 230.12 161.00 L 230.38 162.75 L 229.12 163.75 L 229.38 164.75 L 222.12 177.75 L 222.38 178.75 L 214.12 189.75 L 214.38 190.75 L 211.12 193.75 L 211.38 194.75 L 195.75 209.38 L 194.75 211.38 L 193.50 211.38 L 180.75 221.38 L 179.25 221.38 L 167.50 228.38 L 165.50 228.38 L 160.50 231.38 L 158.50 231.38 L 151.50 234.38 L 148.50 234.38 L 147.75 235.38 L 144.50 235.38 L 138.75 237.38 L 132.75 237.38 L 131.75 238.38 L 109.00 238.38 L 108.25 237.38 L 101.00 237.38 L 95.25 236.38 L 94.25 235.38 L 91.00 235.38 L 86.75 233.38 L 84.00 233.38 L 73.00 229.38 L 59.00 222.38 L 57.25 220.38 L 54.00 219.38 L 52.25 217.38 L 48.00 215.38 L 26.62 195.00 L 25.62 192.50 L 23.62 191.00 L 16.38 180.75 L 15.62 177.75 L 13.38 175.75 L 13.62 174.50 L 12.38 173.75 L 12.62 172.75 L 10.38 169.75 L 10.62 168.50 L 9.38 167.75 L 6.62 158.75 L 5.38 157.75 L 4.62 153.00 L 3.38 151.75 L 2.38 143.50 L 1.38 142.75 L 1.38 139.50 L 0.38 138.75 L 0.00 132.38 L 126.12 0.00 Z M 130.12 221.25 L 143.25 219.38 L 144.00 218.38 L 150.25 217.38 L 151.00 216.38 L 153.25 216.38 L 164.50 211.38 L 165.00 210.38 L 167.00 210.38 L 181.00 201.38 L 196.62 187.00 L 207.62 172.25 L 210.62 167.00 L 210.38 166.00 L 211.62 165.25 L 212.38 162.00 L 213.62 161.25 L 215.38 155.00 L 216.62 154.25 L 216.38 152.00 L 217.62 151.25 L 219.38 145.75 L 220.38 139.00 L 221.38 138.25 L 221.38 133.00 L 222.38 132.25 L 223.38 109.75 L 222.38 108.75 L 222.62 103.75 L 221.38 102.75 L 221.62 98.75 L 220.38 97.75 L 220.38 93.50 L 219.38 92.75 L 217.62 84.75 L 216.38 83.75 L 216.62 81.75 L 215.38 80.75 L 214.38 76.50 L 209.62 67.50 L 208.38 66.75 L 208.62 65.75 L 197.62 50.75 L 189.25 42.38 L 188.00 42.38 L 179.25 34.38 L 163.25 25.38 L 159.00 24.38 L 158.50 23.38 L 154.00 22.38 L 153.25 21.38 L 151.00 21.38 L 150.25 20.38 L 144.00 19.38 L 143.25 18.38 L 131.25 17.38 L 130.50 16.38 L 105.50 16.38 L 104.75 17.38 L 99.50 17.62 L 84.75 21.38 L 62.50 32.38 L 56.75 37.38 L 55.50 37.38 L 52.00 41.12 L 50.50 41.38 L 41.38 50.50 L 41.38 51.75 L 34.12 59.75 L 27.38 70.50 L 24.38 78.75 L 23.12 79.50 L 23.38 80.75 L 19.38 89.50 L 19.38 92.75 L 18.12 93.75 L 18.38 97.75 L 17.12 98.50 L 16.38 106.75 L 15.38 108.00 L 16.12 135.00 L 17.38 136.00 L 17.12 140.00 L 18.38 141.00 L 18.62 145.00 L 21.12 153.00 L 22.38 154.00 L 24.38 161.25 L 28.38 167.00 L 28.12 168.25 L 29.38 169.00 L 30.38 172.25 L 39.12 184.25 L 53.50 198.38 L 64.75 206.38 L 69.75 208.38 L 71.50 210.38 L 77.75 212.38 L 82.75 215.38 L 90.75 217.38 L 91.50 218.38 L 95.75 218.38 L 96.25 219.38 L 105.75 220.38 L 106.50 221.38 L 130.12 221.25 Z M 355.75 108.38 L 348.00 108.38 L 347.00 107.38 L 337.00 106.38 L 326.00 101.38 L 319.38 95.75 L 319.38 94.00 L 329.00 83.38 L 330.50 83.38 L 338.50 89.38 L 342.75 90.38 L 343.50 91.38 L 346.75 91.38 L 347.50 92.38 L 357.25 92.38 L 361.50 90.38 L 363.62 87.00 L 362.62 81.50 L 360.00 79.38 L 352.00 76.38 L 342.00 74.38 L 341.25 73.38 L 339.00 73.38 L 333.75 71.12 L 325.38 63.75 L 324.62 60.50 L 323.38 59.75 L 322.38 47.00 L 326.38 37.00 L 331.00 32.38 L 337.00 29.38 L 344.25 28.38 L 345.00 27.38 L 363.75 29.38 L 372.75 33.38 L 378.38 37.75 L 371.38 49.75 L 369.50 50.88 L 361.75 46.38 L 353.25 43.38 L 345.50 43.38 L 341.75 45.38 L 339.12 48.75 L 339.38 52.00 L 341.50 55.38 L 348.25 58.38 L 354.75 59.38 L 355.50 60.38 L 363.75 62.38 L 371.75 66.38 L 377.38 72.00 L 380.38 79.00 L 380.38 88.75 L 379.38 89.75 L 379.38 92.75 L 378.12 93.50 L 377.38 96.75 L 374.12 101.00 L 365.75 106.38 L 363.50 106.38 L 362.75 107.38 L 356.75 107.38 L 355.75 108.38 Z M 537.00 107.38 L 520.00 107.38 L 513.50 90.38 L 480.50 90.38 L 480.38 92.75 L 479.12 93.75 L 473.75 107.38 L 456.38 106.75 L 456.38 105.00 L 457.62 104.25 L 457.38 103.00 L 459.62 100.00 L 460.38 96.00 L 463.38 91.00 L 463.38 89.00 L 464.62 88.25 L 464.38 87.00 L 467.62 80.75 L 468.38 77.00 L 469.62 76.00 L 470.38 72.00 L 472.62 69.00 L 473.38 65.00 L 478.38 55.00 L 478.38 53.00 L 479.62 52.00 L 481.38 46.00 L 483.38 43.25 L 485.38 36.00 L 487.62 33.00 L 488.38 29.00 L 490.25 27.62 L 502.00 28.38 L 503.75 27.38 L 505.38 29.00 L 506.12 32.00 L 508.38 35.00 L 509.12 39.00 L 511.38 42.00 L 511.12 44.00 L 512.38 45.00 L 514.12 51.00 L 517.38 56.75 L 517.12 58.00 L 518.38 59.00 L 519.12 63.00 L 521.38 66.00 L 525.12 77.00 L 526.38 78.00 L 528.12 84.00 L 529.38 85.00 L 531.12 91.00 L 532.38 92.00 L 533.38 96.25 L 535.38 99.00 L 535.38 101.00 L 537.88 106.00 L 537.00 107.38 Z M 306.00 107.38 L 290.38 106.75 L 291.00 28.38 L 305.75 28.38 L 307.38 30.00 L 306.62 31.50 L 307.12 106.50 L 306.00 107.38 Z M 449.75 107.38 L 394.38 106.75 L 395.00 28.38 L 411.38 29.00 L 411.12 91.25 L 449.75 91.38 L 449.75 107.38 Z M 615.75 107.38 L 602.00 107.38 L 591.62 92.50 L 589.38 90.75 L 589.38 89.50 L 585.38 85.75 L 585.62 84.75 L 582.38 81.75 L 582.62 80.75 L 570.38 65.75 L 565.25 57.62 L 564.62 58.25 L 565.38 59.00 L 565.38 106.75 L 548.38 106.75 L 549.00 28.38 L 564.00 28.62 L 588.12 61.00 L 591.38 64.00 L 591.12 65.00 L 594.38 68.00 L 594.38 69.25 L 599.25 75.88 L 599.38 29.00 L 616.38 29.00 L 615.75 107.38 Z M 666.75 107.38 L 633.38 106.75 L 634.00 28.38 L 666.50 28.38 L 667.50 29.38 L 676.75 30.38 L 687.75 35.38 L 699.38 48.00 L 702.38 56.00 L 702.12 58.25 L 703.38 59.00 L 703.38 74.75 L 702.38 79.75 L 701.12 80.50 L 701.38 82.75 L 700.12 83.75 L 697.38 90.75 L 686.75 101.38 L 678.50 105.38 L 675.50 105.38 L 674.75 106.38 L 668.00 106.38 L 666.75 107.38 Z M 668.12 91.25 L 673.75 89.38 L 677.00 86.38 L 678.25 86.38 L 683.38 80.00 L 684.38 76.00 L 685.38 75.25 L 685.38 70.00 L 686.38 69.25 L 684.62 58.50 L 679.38 50.75 L 673.00 46.38 L 668.00 45.38 L 667.25 44.38 L 649.50 44.38 L 649.12 91.00 L 668.12 91.25 Z M 506.62 74.25 L 505.38 73.00 L 504.62 68.75 L 503.38 67.75 L 501.62 60.75 L 499.38 57.75 L 498.62 53.50 L 497.38 52.75 L 497.25 50.38 L 493.38 58.50 L 491.38 65.75 L 490.12 66.75 L 489.38 70.75 L 488.12 71.50 L 488.88 73.00 L 487.25 73.38 L 487.12 74.25 L 506.62 74.25 Z M 142.50 214.12 L 141.38 213.25 L 141.38 54.00 L 173.75 53.38 L 174.62 54.75 L 174.38 197.75 L 163.75 205.38 L 162.25 205.38 L 153.75 210.38 L 151.50 210.38 L 150.75 211.38 L 142.50 214.12 Z M 123.75 217.38 L 113.00 217.12 L 107.25 216.38 L 106.50 215.38 L 101.00 215.38 L 98.12 213.25 L 98.38 90.50 L 97.62 89.25 L 98.50 88.38 L 132.38 89.00 L 132.38 214.75 L 130.50 216.38 L 124.50 216.38 L 123.75 217.38 Z M 90.00 211.38 L 87.25 211.38 L 75.00 205.38 L 66.25 199.38 L 55.38 189.75 L 56.00 116.38 L 88.50 116.38 L 90.12 117.25 L 90.00 211.38 Z M 375.75 215.38 L 361.38 214.75 L 361.62 212.75 L 360.38 211.75 L 360.62 209.75 L 359.38 208.75 L 358.62 203.75 L 357.38 202.75 L 356.62 197.75 L 355.38 196.75 L 355.38 194.50 L 352.38 187.75 L 352.62 185.75 L 351.38 184.75 L 351.62 182.75 L 350.38 181.75 L 350.38 179.50 L 348.38 175.75 L 348.62 174.00 L 347.38 172.75 L 347.62 171.00 L 345.38 166.75 L 345.50 164.38 L 344.38 165.50 L 342.38 173.75 L 341.12 174.75 L 341.38 176.75 L 340.38 177.50 L 339.38 182.75 L 338.12 183.75 L 338.38 185.75 L 337.12 186.75 L 337.38 188.75 L 336.12 189.75 L 336.38 191.75 L 335.12 192.75 L 335.38 194.75 L 333.12 198.75 L 333.38 200.75 L 332.12 201.75 L 332.38 203.75 L 331.12 204.75 L 331.38 206.75 L 330.12 207.75 L 330.38 209.75 L 329.12 210.75 L 328.38 214.75 L 313.00 215.38 L 308.38 202.75 L 308.62 200.75 L 306.38 196.75 L 306.62 194.75 L 305.38 193.75 L 305.62 191.50 L 304.38 190.75 L 304.62 188.75 L 302.38 184.75 L 302.62 182.75 L 301.38 181.75 L 301.62 179.75 L 300.38 178.75 L 300.62 176.50 L 299.38 175.75 L 299.38 173.00 L 294.38 159.75 L 294.38 157.50 L 293.38 156.75 L 293.38 154.50 L 292.38 153.75 L 292.38 151.50 L 291.38 150.75 L 291.38 148.50 L 290.38 147.75 L 290.38 145.50 L 289.38 144.75 L 288.62 139.75 L 287.38 138.75 L 287.38 136.00 L 305.38 136.00 L 306.12 140.00 L 307.38 141.00 L 307.12 143.00 L 308.38 144.00 L 308.38 147.25 L 309.38 148.00 L 309.12 150.00 L 310.38 151.00 L 312.38 160.25 L 313.38 161.00 L 313.12 163.00 L 314.38 164.00 L 314.12 166.25 L 315.38 167.00 L 316.38 173.25 L 318.38 177.00 L 318.12 179.25 L 319.38 180.00 L 319.12 182.00 L 320.38 183.00 L 320.38 186.00 L 321.50 187.38 L 321.38 185.00 L 324.38 178.00 L 325.38 172.00 L 326.62 171.00 L 326.38 169.00 L 327.62 168.00 L 327.38 166.00 L 328.62 165.00 L 328.38 163.00 L 329.62 162.00 L 329.38 160.00 L 330.62 159.00 L 330.38 157.00 L 331.62 156.00 L 331.38 154.00 L 333.62 149.75 L 333.38 148.00 L 335.38 144.25 L 337.38 136.00 L 339.00 134.38 L 351.75 134.38 L 353.38 136.00 L 353.12 138.25 L 354.38 139.00 L 354.12 141.25 L 355.38 142.00 L 355.38 144.75 L 358.38 152.00 L 358.12 154.00 L 359.38 155.00 L 360.12 160.25 L 361.38 161.00 L 361.12 163.00 L 362.38 164.00 L 364.38 173.25 L 367.38 180.00 L 367.12 182.00 L 369.25 185.88 L 377.38 162.00 L 377.38 159.00 L 378.62 158.00 L 378.38 156.00 L 379.62 155.00 L 379.38 153.00 L 380.62 152.00 L 380.38 150.00 L 382.38 145.75 L 382.38 143.00 L 383.62 142.00 L 384.38 137.00 L 386.25 135.38 L 402.50 135.62 L 402.38 139.75 L 401.12 140.50 L 400.38 145.75 L 399.12 146.75 L 397.38 154.75 L 396.12 155.75 L 395.38 160.75 L 394.12 161.75 L 394.38 163.75 L 393.12 164.75 L 393.38 166.75 L 392.12 167.75 L 392.38 169.75 L 391.12 170.75 L 391.38 172.75 L 390.12 173.75 L 390.38 175.75 L 389.12 176.75 L 389.38 178.75 L 388.12 179.75 L 388.38 181.75 L 387.12 182.75 L 387.38 184.75 L 386.12 185.75 L 386.38 187.75 L 385.12 188.75 L 385.38 190.75 L 384.12 191.75 L 384.38 193.75 L 382.12 197.75 L 382.38 199.75 L 381.12 200.50 L 381.38 202.75 L 380.12 203.75 L 379.38 208.75 L 378.12 209.75 L 377.12 214.25 L 375.75 215.38 Z M 554.25 214.62 L 551.38 212.75 L 550.62 208.75 L 549.38 207.75 L 549.62 205.75 L 547.38 202.75 L 547.38 200.50 L 545.25 196.38 L 513.50 196.38 L 506.00 214.38 L 488.38 213.75 L 522.00 134.38 L 536.50 134.38 L 538.38 136.00 L 539.12 140.00 L 541.38 143.00 L 541.38 145.25 L 544.38 150.00 L 546.12 156.25 L 547.38 157.00 L 547.38 159.00 L 549.38 162.00 L 549.38 164.00 L 551.38 167.00 L 553.12 173.25 L 555.38 176.00 L 555.38 178.25 L 557.38 181.00 L 558.12 185.00 L 560.38 188.00 L 561.12 192.00 L 563.38 195.00 L 563.38 197.25 L 565.38 200.00 L 567.12 206.00 L 568.38 207.00 L 568.38 209.25 L 570.38 212.00 L 570.00 214.38 L 554.25 214.62 Z M 477.25 214.62 L 463.25 214.62 L 461.38 213.75 L 462.12 212.00 L 462.00 182.38 L 430.25 182.38 L 430.38 214.00 L 415.00 214.62 L 413.38 213.75 L 414.00 135.38 L 430.38 136.00 L 430.50 166.38 L 462.00 166.38 L 461.62 136.50 L 463.00 135.38 L 478.38 136.00 L 478.38 214.00 L 477.25 214.62 Z M 596.50 214.62 L 580.38 213.75 L 580.38 136.00 L 617.75 135.38 L 630.75 138.38 L 634.75 140.38 L 640.38 146.00 L 640.12 147.00 L 643.38 152.00 L 644.38 156.00 L 644.38 166.75 L 642.38 173.75 L 638.38 179.75 L 631.00 185.12 L 627.62 186.50 L 630.38 189.00 L 635.12 197.25 L 637.38 199.00 L 637.12 200.00 L 639.38 202.00 L 644.12 210.25 L 646.38 212.00 L 646.38 213.75 L 627.25 214.38 L 625.38 212.75 L 620.62 204.50 L 618.38 202.75 L 618.62 201.75 L 616.38 199.75 L 616.62 198.75 L 614.38 196.75 L 614.62 195.75 L 612.38 193.75 L 610.25 189.38 L 597.25 189.38 L 597.38 213.75 L 596.50 214.62 Z M 675.00 214.38 L 658.38 213.75 L 658.38 136.00 L 715.75 135.38 L 715.75 151.38 L 675.12 151.50 L 675.25 167.38 L 710.75 167.38 L 712.38 169.00 L 711.62 170.75 L 712.38 182.75 L 675.25 183.38 L 675.00 214.38 Z M 612.38 174.25 L 621.50 172.38 L 625.62 169.00 L 625.38 168.00 L 626.62 167.00 L 626.38 164.00 L 627.38 163.25 L 625.62 156.75 L 622.25 153.38 L 617.25 152.38 L 616.50 151.38 L 597.25 151.38 L 597.12 174.00 L 612.38 174.25 Z M 539.38 181.25 L 529.25 156.38 L 528.38 160.75 L 527.12 161.50 L 527.38 162.75 L 526.12 163.75 L 523.38 172.75 L 521.38 175.50 L 521.38 177.75 L 519.12 181.25 L 539.38 181.25 Z M 52.50 310.38 L 44.75 310.12 L 40.50 301.38 L 25.25 301.38 L 25.38 302.75 L 24.12 303.50 L 24.38 304.75 L 21.25 310.12 L 14.00 310.38 L 12.38 308.75 L 17.62 298.00 L 19.38 292.00 L 22.38 287.00 L 23.38 283.00 L 24.62 282.00 L 25.38 278.00 L 30.25 269.62 L 35.75 269.62 L 38.38 272.00 L 44.12 287.00 L 46.38 290.00 L 46.38 292.25 L 49.38 297.25 L 51.12 303.00 L 52.38 304.00 L 53.38 307.00 L 53.38 309.50 L 52.50 310.38 Z M 745.75 302.38 L 744.12 306.00 L 741.75 308.38 L 737.50 310.38 L 725.25 310.38 L 718.75 307.12 L 715.38 304.00 L 720.00 297.38 L 729.50 302.38 L 733.75 302.38 L 736.00 301.38 L 737.62 299.25 L 736.50 297.38 L 733.25 295.38 L 728.00 294.38 L 721.00 291.38 L 717.38 287.75 L 716.38 283.75 L 717.38 277.00 L 721.25 272.38 L 725.00 270.38 L 729.75 269.62 L 737.50 270.38 L 745.38 275.00 L 744.38 277.75 L 740.75 282.12 L 733.00 278.38 L 728.25 278.38 L 725.62 282.00 L 728.00 284.38 L 733.75 286.38 L 736.75 286.38 L 737.25 287.38 L 742.75 289.38 L 745.75 294.38 L 745.75 302.38 Z M 83.00 310.38 L 69.25 310.38 L 66.50 308.38 L 65.00 308.38 L 57.38 299.75 L 56.62 294.75 L 55.38 293.50 L 56.38 283.25 L 60.62 276.25 L 69.00 270.38 L 83.50 270.38 L 89.75 273.38 L 92.38 276.00 L 87.50 282.38 L 85.00 282.38 L 81.25 279.38 L 77.50 278.38 L 71.50 279.38 L 68.12 282.25 L 65.38 287.00 L 65.38 294.00 L 71.25 301.38 L 78.25 302.38 L 86.75 297.62 L 92.38 303.00 L 92.38 304.00 L 87.75 308.38 L 83.00 310.38 Z M 667.50 310.38 L 654.00 310.38 L 651.00 309.38 L 643.62 303.00 L 641.38 299.00 L 641.62 297.75 L 640.38 296.75 L 640.38 284.00 L 641.38 283.00 L 641.38 281.00 L 647.75 273.62 L 653.25 270.38 L 667.75 270.38 L 676.38 276.00 L 671.50 282.38 L 669.25 282.38 L 665.50 279.38 L 662.00 278.38 L 655.50 279.38 L 651.12 283.50 L 649.62 287.25 L 650.12 295.00 L 654.25 300.38 L 659.00 302.38 L 662.25 302.38 L 667.00 300.38 L 670.50 297.38 L 676.38 303.00 L 676.00 305.12 L 667.50 310.38 Z M 122.75 310.38 L 110.00 310.38 L 109.25 309.38 L 107.00 309.38 L 105.00 308.38 L 97.38 299.75 L 95.62 292.00 L 97.38 282.00 L 101.75 275.62 L 109.25 270.38 L 123.50 270.38 L 129.75 273.38 L 132.38 276.00 L 127.50 282.38 L 125.50 282.38 L 123.25 280.38 L 118.25 278.38 L 111.50 279.38 L 107.12 283.75 L 105.38 287.50 L 105.38 293.25 L 107.38 296.00 L 107.12 297.25 L 112.00 301.38 L 118.25 302.38 L 119.00 301.38 L 123.25 300.38 L 126.75 297.62 L 132.38 302.75 L 132.00 305.12 L 127.75 308.38 L 122.75 310.38 Z M 327.75 310.62 L 324.38 308.75 L 323.62 304.75 L 321.50 301.38 L 306.25 301.38 L 304.38 306.75 L 302.00 310.12 L 295.00 310.38 L 293.38 309.00 L 310.00 270.38 L 318.12 270.75 L 320.38 274.75 L 320.12 276.25 L 322.38 279.00 L 325.12 287.00 L 326.38 288.00 L 326.38 290.25 L 328.38 293.00 L 330.12 299.00 L 331.38 300.00 L 331.12 301.25 L 332.38 302.00 L 334.38 307.25 L 333.75 310.12 L 327.75 310.62 Z M 407.50 310.38 L 394.25 310.38 L 389.75 308.12 L 383.62 302.75 L 380.38 294.75 L 380.38 285.00 L 381.62 284.00 L 381.38 282.00 L 382.62 281.00 L 383.38 278.00 L 388.00 273.62 L 394.25 270.38 L 407.75 270.38 L 416.38 275.75 L 416.12 278.00 L 411.75 282.38 L 409.00 282.38 L 405.25 279.38 L 399.25 278.38 L 393.25 281.38 L 390.12 285.75 L 390.38 295.25 L 394.50 300.38 L 402.00 302.38 L 407.50 300.38 L 410.00 297.38 L 411.25 297.38 L 417.12 303.00 L 414.50 306.38 L 407.50 310.38 Z M 163.25 310.38 L 149.25 310.38 L 147.00 309.38 L 139.38 302.75 L 139.62 301.50 L 137.38 298.75 L 137.38 296.50 L 136.38 295.75 L 136.38 284.00 L 137.62 283.00 L 139.38 278.00 L 147.25 271.38 L 150.00 270.38 L 163.75 270.38 L 171.00 274.62 L 176.38 282.00 L 176.12 284.00 L 177.38 285.00 L 177.38 295.50 L 175.38 300.75 L 170.75 306.12 L 163.25 310.38 Z M 206.50 310.38 L 194.00 310.38 L 189.75 308.12 L 185.38 303.75 L 182.62 295.75 L 182.62 272.75 L 184.25 270.62 L 190.50 270.38 L 192.38 272.00 L 192.12 296.00 L 194.50 300.38 L 199.75 302.38 L 205.50 300.38 L 208.38 295.25 L 208.38 272.00 L 210.00 270.38 L 215.50 270.38 L 217.38 272.00 L 217.38 297.00 L 216.38 300.75 L 214.38 304.75 L 210.75 308.38 L 206.50 310.38 Z M 257.50 310.38 L 252.25 310.38 L 250.75 309.12 L 232.50 285.38 L 233.38 287.25 L 233.38 308.75 L 231.50 310.38 L 226.00 310.38 L 224.62 309.25 L 224.38 272.00 L 226.00 270.38 L 232.25 270.62 L 246.12 287.75 L 250.25 294.38 L 250.62 270.75 L 257.50 270.38 L 259.38 272.00 L 259.38 308.75 L 257.50 310.38 Z M 283.50 310.38 L 277.00 310.38 L 275.62 308.75 L 275.62 278.75 L 264.75 278.38 L 263.62 277.00 L 263.38 272.00 L 265.25 270.38 L 295.75 270.38 L 297.38 272.25 L 296.75 278.38 L 285.12 278.75 L 285.38 308.75 L 283.50 310.38 Z M 372.50 310.38 L 366.75 310.12 L 352.62 293.00 L 348.50 286.38 L 348.38 308.75 L 346.50 310.38 L 341.00 310.38 L 339.62 309.25 L 339.38 272.00 L 340.75 270.62 L 348.00 270.88 L 348.12 272.25 L 358.38 284.00 L 358.12 285.00 L 362.38 289.00 L 362.12 290.25 L 364.38 292.00 L 365.25 294.38 L 365.62 270.75 L 372.75 270.38 L 374.38 272.00 L 374.38 308.75 L 372.50 310.38 Z M 440.00 310.38 L 433.62 310.00 L 432.88 308.25 L 433.38 295.75 L 418.38 273.00 L 419.00 270.62 L 428.00 270.62 L 432.38 278.25 L 434.38 280.00 L 434.12 281.25 L 435.38 282.00 L 436.75 285.38 L 437.62 285.25 L 437.38 284.00 L 439.62 282.00 L 439.38 281.00 L 441.38 279.25 L 442.38 276.00 L 446.75 270.62 L 454.50 270.38 L 456.12 272.00 L 451.12 279.50 L 451.38 280.75 L 449.12 282.75 L 447.12 285.75 L 447.38 286.75 L 441.38 294.75 L 441.38 309.25 L 440.00 310.38 Z M 494.50 310.38 L 482.00 310.38 L 477.00 308.38 L 472.38 304.75 L 472.38 303.00 L 474.38 301.25 L 474.38 300.00 L 477.25 297.62 L 486.50 302.38 L 490.25 302.38 L 492.50 301.38 L 494.12 299.00 L 492.50 296.38 L 480.00 292.38 L 474.38 287.75 L 473.38 279.00 L 474.62 276.00 L 478.75 271.62 L 482.00 270.38 L 493.50 270.38 L 497.00 271.62 L 501.38 275.00 L 500.38 278.75 L 497.75 281.62 L 495.25 281.38 L 490.00 278.38 L 485.25 278.38 L 482.12 281.50 L 485.00 284.38 L 497.75 288.38 L 503.38 295.00 L 503.38 301.75 L 502.12 302.75 L 501.38 305.75 L 498.88 307.50 L 499.50 308.88 L 497.25 308.38 L 494.50 310.38 Z M 537.50 310.38 L 511.25 310.38 L 509.38 308.75 L 509.38 272.00 L 511.00 270.38 L 537.75 270.38 L 539.38 272.00 L 538.75 278.38 L 518.12 278.50 L 518.25 286.38 L 537.38 287.00 L 537.38 292.75 L 536.00 294.38 L 518.25 294.38 L 518.12 301.25 L 537.75 301.38 L 539.38 303.25 L 539.38 308.75 L 537.50 310.38 Z M 578.75 310.38 L 570.00 310.38 L 566.38 306.75 L 566.62 305.75 L 560.75 298.38 L 555.25 298.12 L 554.12 298.50 L 554.12 309.50 L 552.75 310.38 L 545.88 309.75 L 545.38 272.00 L 546.75 270.62 L 566.75 270.38 L 572.75 272.38 L 576.12 275.75 L 578.38 280.00 L 578.38 287.50 L 576.12 292.00 L 570.62 296.50 L 578.38 306.00 L 579.38 308.00 L 578.75 310.38 Z M 598.38 310.75 L 595.38 308.50 L 595.62 307.00 L 594.38 305.75 L 592.62 299.75 L 591.38 298.75 L 591.38 296.75 L 589.38 293.75 L 588.62 289.75 L 587.38 288.75 L 586.62 284.75 L 585.38 283.75 L 584.62 280.00 L 582.38 276.75 L 581.38 271.75 L 583.00 270.38 L 589.75 270.38 L 591.38 272.00 L 592.12 276.00 L 593.38 277.00 L 594.12 281.00 L 595.38 282.25 L 596.12 286.25 L 597.38 287.00 L 597.38 289.25 L 600.12 294.75 L 600.25 297.12 L 602.38 290.00 L 603.62 289.00 L 603.62 287.00 L 607.38 279.00 L 607.38 277.00 L 609.62 274.00 L 609.38 272.00 L 611.25 270.38 L 617.75 270.38 L 619.38 272.00 L 617.38 278.75 L 616.12 279.75 L 616.38 281.75 L 615.12 282.50 L 615.38 283.75 L 613.38 286.75 L 605.38 308.75 L 603.75 310.38 L 600.38 310.75 L 598.38 310.75 Z M 631.50 310.38 L 626.00 310.38 L 624.38 309.00 L 625.00 270.38 L 631.75 270.38 L 633.38 272.00 L 633.38 308.75 L 631.50 310.38 Z M 710.50 310.38 L 683.25 310.38 L 681.38 308.75 L 681.38 272.00 L 682.75 270.62 L 709.50 270.38 L 711.38 272.00 L 710.75 278.38 L 690.50 278.38 L 690.12 285.75 L 709.38 287.00 L 708.75 294.38 L 690.50 294.38 L 690.12 301.25 L 709.75 301.38 L 711.62 304.50 L 711.62 308.75 L 710.50 310.38 Z M 158.62 302.25 L 164.62 299.25 L 167.38 295.00 L 167.38 292.00 L 168.38 291.00 L 167.38 286.25 L 164.25 281.38 L 158.25 278.38 L 154.75 278.38 L 150.50 280.38 L 147.12 283.75 L 146.38 287.75 L 145.38 288.50 L 145.38 292.25 L 147.38 297.00 L 150.50 300.38 L 154.75 302.38 L 158.62 302.25 Z M 564.12 289.25 L 566.75 288.38 L 569.38 285.25 L 568.62 281.50 L 566.00 279.38 L 562.75 278.38 L 554.50 278.38 L 554.38 289.25 L 564.12 289.25 Z" fill="#1f7f94" fill-rule="evenodd"/>
</svg>
